<svg width="134" height="32" viewBox="0 0 134 32" fill="none" xmlns="http://www.w3.org/2000/svg">
<path fill-rule="evenodd" clip-rule="evenodd" d="M14.25 2.65625L2 7.25V12.5V24.75L14.25 20.1562V17.2031L17.75 18.5156V24.0938L9 27.375L16 30L17.75 29.3438L30 24.75V19.5V7.25L17.75 11.8438V14.7969L14.25 13.4844V7.90625L23 4.625L16 2L14.25 2.65625Z" fill="#165E83"/>
<path d="M46.5547 11.1453H48.7093C48.9867 10.5267 49.2 9.95067 49.392 9.268H42.8213V10.9107C42.8213 16.2013 42.4587 20.0627 41.776 22.4093C41.3493 23.86 40.88 24.9267 40.2187 25.9933C39.7493 25.2253 39.4507 24.8627 38.7893 24.308C40.432 21.492 40.9227 18.4627 40.9227 10.996C40.9227 8.92667 40.9013 8.20133 40.7947 7.43333C41.6053 7.51866 42.3307 7.54 43.4613 7.54H55.4933C56.7093 7.54 57.4773 7.49733 57.9893 7.412V9.37467C57.392 9.28933 56.7307 9.268 55.5573 9.268H51.3973C51.1627 9.95067 50.9493 10.548 50.672 11.1453H54.384C55.408 11.1453 56.048 11.124 56.5813 11.06C56.5173 11.6573 56.496 12.212 56.496 13.1293V17.1827C56.496 18.164 56.5173 18.6547 56.5813 19.252C55.9413 19.188 55.2373 19.1667 54.4053 19.1667H51.3973V24.0947C51.3973 25.6307 50.8427 25.972 48.304 25.972C47.6853 25.972 47.28 25.9507 46.4907 25.908C46.4053 25.012 46.3413 24.756 46.0427 23.988C47.1093 24.1587 47.8347 24.2227 48.6027 24.2227C49.3067 24.2227 49.456 24.1373 49.456 23.7747V19.1667H46.5547C45.7653 19.1667 45.0613 19.188 44.3787 19.252C44.4427 18.676 44.464 17.9933 44.464 17.0973V13.2147C44.464 12.2333 44.4427 11.7213 44.3787 11.06C44.9547 11.124 45.68 11.1453 46.5547 11.1453ZM46.256 12.724V14.3027H54.6187V12.724H46.256ZM46.256 15.86V17.5667H54.6187V15.86H46.256ZM52.8693 20.6173L54.4693 19.764C55.5787 21.5347 56.8373 22.8573 58.48 23.9667C57.9467 24.4147 57.4987 24.884 57.0293 25.5027C55.3227 24.0947 54.4267 23.0493 52.8693 20.6173ZM45.68 19.7853L47.4293 20.5533C46.192 22.8573 45.168 24.244 43.6533 25.588C43.184 25.012 42.8213 24.692 42.1813 24.244C43.8667 22.8787 44.848 21.62 45.68 19.7853ZM68.3787 12.1907H63.792C62.9173 12.1907 62.192 12.2333 61.3387 12.3187V10.1213C62.1493 10.228 62.7893 10.2707 63.792 10.2707H69.488V8.628C69.488 7.86 69.4453 7.32666 69.3387 6.66533H71.5573C71.472 7.26267 71.4293 7.88133 71.4293 8.60666V10.2707H77.4453C78.512 10.2707 79.2373 10.228 79.9413 10.1213V12.3187C78.9813 12.2333 78.384 12.1907 77.4453 12.1907H72.432C73.4987 14.1533 74.48 15.5613 75.8027 16.948C77.3173 18.5693 78.8533 19.7427 80.624 20.7027C80.0693 21.3427 79.8347 21.7267 79.408 22.6653C77.7867 21.5773 76.5067 20.5107 75.2267 19.1453C73.5627 17.396 72.432 15.732 71.3227 13.4493C71.3867 14.6653 71.4293 15.4547 71.4293 16.052V20.02H73.6053C74.672 20.02 75.0773 19.9987 75.632 19.9133V22.0253C74.992 21.94 74.416 21.8973 73.4987 21.8973H71.4293V23.5827C71.4293 24.5853 71.472 25.4387 71.5787 26.164H69.3387C69.4453 25.396 69.488 24.5853 69.488 23.5827V21.8973H67.632C66.7147 21.8973 66.1173 21.94 65.4987 22.0253V19.9133C66.0533 19.9987 66.4587 20.02 67.5467 20.02H69.488V16.0733C69.488 15.348 69.5093 14.8787 69.5733 13.5133C68.5707 15.732 67.4613 17.4173 65.7333 19.316C64.432 20.7027 63.3227 21.7053 61.8507 22.708C61.4667 21.876 61.2533 21.5347 60.6347 20.852C62.4053 19.764 63.8773 18.5053 65.3707 16.7773C66.7147 15.22 67.5253 14.004 68.3787 12.1907ZM91.4613 8.73467H86.8747C85.9787 8.73467 85.3173 8.756 84.6773 8.82V7.04933C85.4027 7.13467 86.128 7.17733 87.0027 7.17733H98.2027C99.1413 7.17733 99.8027 7.13467 100.485 7.04933V8.82C99.8453 8.756 99.2693 8.73467 98.352 8.73467H93.3173V9.73733H99.2907C100.635 9.73733 101.211 9.716 101.808 9.652C101.744 10.164 101.723 10.5907 101.723 11.3373V12.66C101.723 13.364 101.744 13.7267 101.829 14.3027H99.9733V11.1667H93.3173V13.4493C93.3173 14.516 93.3387 14.9213 93.424 15.4973H91.3333C91.4187 14.9427 91.4613 14.3667 91.4613 13.4493V11.1667H85.168V14.3027H83.2907C83.376 13.7267 83.4187 13.3427 83.4187 12.66V11.3373C83.4187 10.6333 83.3973 10.1853 83.3333 9.652C83.9093 9.716 84.5067 9.73733 85.8293 9.73733H91.4613V8.73467ZM91.4613 22.836H86.9813V23.9667H84.9973C85.0827 23.3693 85.1253 22.708 85.1253 21.9827V18.0573C85.1253 17.2467 85.0827 16.6707 85.0187 16.052C85.5733 16.116 86.0853 16.1373 86.9813 16.1373H98.032C98.992 16.1373 99.5467 16.116 100.08 16.052C100.016 16.6067 99.9947 17.14 99.9947 18.0787V21.364C99.9947 22.0467 99.9947 22.4947 100.037 22.9213C99.3547 22.8573 98.9067 22.836 98.032 22.836H93.2747V23.796C93.2747 24.0307 93.36 24.1373 93.68 24.2227C93.9787 24.2867 95.3653 24.3507 96.688 24.3507C98.6507 24.3507 99.8027 24.2227 100.101 23.9667C100.357 23.7533 100.464 23.1347 100.464 21.5347C101.168 21.8973 101.424 21.9827 102.299 22.196C102.128 25.7587 101.872 25.908 96.1333 25.908C92.0587 25.908 91.4613 25.716 91.4613 24.372V22.836ZM91.4613 17.5453H86.96V18.74H91.4613V17.5453ZM91.4613 20.084H86.96V21.3853H91.4613V20.084ZM93.2747 21.3853H98.16V20.084H93.2747V21.3853ZM93.2747 18.74H98.16V17.5453H93.2747V18.74ZM86.1707 13.1933V11.9133C86.512 11.956 86.768 11.9773 87.344 11.9773H89.2853C89.776 11.9773 90.16 11.956 90.4373 11.9133V13.1933C90.0747 13.1507 89.7973 13.1293 89.2853 13.1293H87.344C86.832 13.1293 86.4907 13.1507 86.1707 13.1933ZM86.1707 15.2413V13.9613C86.5333 14.004 86.7467 14.0253 87.344 14.0253H89.2853C89.8187 14.0253 90.1387 14.004 90.4373 13.9613V15.2413C90.0747 15.1987 89.7973 15.1773 89.2853 15.1773H87.344C86.8107 15.1773 86.6187 15.1773 86.1707 15.2413ZM94.4053 13.172V11.892C94.7253 11.9347 95.0027 11.956 95.5787 11.956H97.84C98.352 11.956 98.6933 11.9347 98.992 11.892V13.172C98.6293 13.1293 98.352 13.108 97.84 13.108H95.5787C95.0667 13.108 94.7253 13.1293 94.4053 13.172ZM94.4053 15.2413V13.9613C94.7253 14.004 95.0027 14.0253 95.5787 14.0253H97.84C98.352 14.0253 98.6507 14.004 98.992 13.9613V15.2413C98.672 15.1987 98.3733 15.1773 97.84 15.1773H95.5787C95.0453 15.1773 94.7467 15.1987 94.4053 15.2413ZM122.437 15.604L123.44 16.6067C123.312 16.82 123.312 16.82 123.035 17.4387C122.651 18.2493 121.819 19.7 121.307 20.3827C120.923 20.9373 120.56 21.364 120.027 21.94C121.456 22.964 122.672 23.4973 125.04 24.2013C124.613 24.884 124.379 25.3533 124.101 26.0787C121.584 25.1827 120.155 24.436 118.661 23.2413C117.275 24.372 115.675 25.2467 113.456 26.1C113.157 25.46 112.859 24.9907 112.368 24.4787C112.368 25.0333 112.389 25.4173 112.453 25.908H110.661V25.1187H107.781V26.1853H105.925C106.011 25.588 106.053 24.9053 106.053 24.116V21.0653C106.053 20.3613 106.032 19.892 105.947 19.3373C106.544 19.4013 106.971 19.4227 107.632 19.4227H110.939C111.813 19.4227 112.048 19.4227 112.432 19.3587C112.368 19.8493 112.368 20.1267 112.368 20.9373V24.4147C114.437 23.7533 115.952 23.0067 117.296 22.004C115.973 20.596 115.291 19.508 114.395 17.396C113.904 17.4173 113.712 17.4173 113.307 17.4813V15.5827C113.733 15.668 114.139 15.6893 114.736 15.6893H120.88C121.733 15.6893 122.117 15.668 122.437 15.604ZM121.029 17.3747H116.229C116.869 18.8467 117.467 19.7 118.661 20.8307C119.728 19.7213 120.261 18.9533 121.029 17.3747ZM107.781 20.9587V23.5613H110.661V20.9587H107.781ZM105.989 8.99066V7.19867C106.544 7.284 106.885 7.30533 107.717 7.30533H110.704C111.536 7.30533 111.877 7.284 112.432 7.19867V8.99066C111.92 8.92667 111.451 8.90533 110.704 8.90533H107.717C106.992 8.90533 106.48 8.92667 105.989 8.99066ZM105.285 12.0627V10.1853C105.797 10.2707 106.203 10.292 106.992 10.292H111.28C112.155 10.292 112.517 10.2707 112.987 10.2067V12.0627C112.539 11.9987 112.219 11.9773 111.408 11.9773H106.992C106.267 11.9773 105.819 11.9987 105.285 12.0627ZM106.011 15.0707V13.364C106.437 13.4067 106.757 13.428 107.483 13.428H110.96C111.685 13.428 111.984 13.4067 112.389 13.364V15.0707C111.92 15.028 111.6 15.0067 110.96 15.0067H107.483C106.779 15.0067 106.437 15.028 106.011 15.0707ZM106.011 18.036V16.3293C106.459 16.372 106.757 16.3933 107.483 16.3933H110.96C111.685 16.3933 111.984 16.372 112.389 16.3293V18.036C111.813 17.972 111.664 17.972 110.939 17.972H107.461C106.757 17.972 106.48 17.9933 106.011 18.036ZM119.515 9.076H116.784C116.72 11.124 116.485 12.1693 115.845 13.3853C115.397 14.2387 114.971 14.7507 114.181 15.412C113.669 14.8787 113.179 14.4733 112.645 14.1747C114.416 12.9373 115.013 11.5293 115.013 8.628C115.013 8.052 114.992 7.86 114.928 7.284C115.483 7.348 115.995 7.36933 116.592 7.36933H119.579C120.325 7.36933 120.859 7.348 121.392 7.284C121.328 7.796 121.307 8.35067 121.307 9.18267V12.404C121.307 12.724 121.477 12.8093 122.096 12.8093C122.715 12.8093 122.949 12.7453 123.035 12.4893C123.163 12.1693 123.227 11.5293 123.291 10.1853C123.888 10.5267 124.272 10.6973 124.912 10.8893C124.656 14.1107 124.4 14.4307 122.011 14.4307C119.899 14.4307 119.515 14.2387 119.515 13.1293V9.076Z" fill="#165E83"/>
</svg>
