<svg width="200" height="57" viewBox="0 0 200 57" fill="none" xmlns="http://www.w3.org/2000/svg">
<path fill-rule="evenodd" clip-rule="evenodd" d="M25 5.62549L4 13.5005V22.5005V43.5005L25 35.6255V30.563L31 32.813V42.3755L16 48.0005L28 52.5005L31 51.3755L52 43.5005V34.5005V13.5005L31 21.3755V26.438L25 24.188V14.6255L40 9.00049L28 4.50049L25 5.62549Z" fill="white"/>
<path d="M76.832 14.4685H80.064C80.48 13.5405 80.8 12.6765 81.088 11.6525H71.232V14.1165C71.232 22.0525 70.688 27.8445 69.664 31.3645C69.024 33.5405 68.32 35.1405 67.328 36.7405C66.624 35.5885 66.176 35.0445 65.184 34.2125C67.648 29.9885 68.384 25.4445 68.384 14.2445C68.384 11.1405 68.352 10.0525 68.192 8.90049C69.408 9.02849 70.496 9.06049 72.192 9.06049H90.24C92.064 9.06049 93.216 8.99649 93.984 8.86849V11.8125C93.088 11.6845 92.096 11.6525 90.336 11.6525H84.096C83.744 12.6765 83.424 13.5725 83.008 14.4685H88.576C90.112 14.4685 91.072 14.4365 91.872 14.3405C91.776 15.2365 91.744 16.0685 91.744 17.4445V23.5245C91.744 24.9965 91.776 25.7325 91.872 26.6285C90.912 26.5325 89.856 26.5005 88.608 26.5005H84.096V33.8925C84.096 36.1965 83.264 36.7085 79.456 36.7085C78.528 36.7085 77.92 36.6765 76.736 36.6125C76.608 35.2685 76.512 34.8845 76.064 33.7325C77.664 33.9885 78.752 34.0845 79.904 34.0845C80.96 34.0845 81.184 33.9565 81.184 33.4125V26.5005H76.832C75.648 26.5005 74.592 26.5325 73.568 26.6285C73.664 25.7645 73.696 24.7405 73.696 23.3965V17.5725C73.696 16.1005 73.664 15.3325 73.568 14.3405C74.432 14.4365 75.52 14.4685 76.832 14.4685ZM76.384 16.8365V19.2045H88.928V16.8365H76.384ZM76.384 21.5405V24.1005H88.928V21.5405H76.384ZM86.304 28.6765L88.704 27.3965C90.368 30.0525 92.256 32.0365 94.72 33.7005C93.92 34.3725 93.248 35.0765 92.544 36.0045C89.984 33.8925 88.64 32.3245 86.304 28.6765ZM75.52 27.4285L78.144 28.5805C76.288 32.0365 74.752 34.1165 72.48 36.1325C71.776 35.2685 71.232 34.7885 70.272 34.1165C72.8 32.0685 74.272 30.1805 75.52 27.4285ZM109.568 16.0365H102.688C101.376 16.0365 100.288 16.1005 99.008 16.2285V12.9325C100.224 13.0925 101.184 13.1565 102.688 13.1565H111.232V10.6925C111.232 9.54049 111.168 8.74049 111.008 7.74849H114.336C114.208 8.64449 114.144 9.57249 114.144 10.6605V13.1565H123.168C124.768 13.1565 125.856 13.0925 126.912 12.9325V16.2285C125.472 16.1005 124.576 16.0365 123.168 16.0365H115.648C117.248 18.9805 118.72 21.0925 120.704 23.1725C122.976 25.6045 125.28 27.3645 127.936 28.8045C127.104 29.7645 126.752 30.3405 126.112 31.7485C123.68 30.1165 121.76 28.5165 119.84 26.4685C117.344 23.8445 115.648 21.3485 113.984 17.9245C114.08 19.7485 114.144 20.9325 114.144 21.8285V27.7805H117.408C119.008 27.7805 119.616 27.7485 120.448 27.6205V30.7885C119.488 30.6605 118.624 30.5965 117.248 30.5965H114.144V33.1245C114.144 34.6285 114.208 35.9085 114.368 36.9965H111.008C111.168 35.8445 111.232 34.6285 111.232 33.1245V30.5965H108.448C107.072 30.5965 106.176 30.6605 105.248 30.7885V27.6205C106.08 27.7485 106.688 27.7805 108.32 27.7805H111.232V21.8605C111.232 20.7725 111.264 20.0685 111.36 18.0205C109.856 21.3485 108.192 23.8765 105.6 26.7245C103.648 28.8045 101.984 30.3085 99.776 31.8125C99.2 30.5645 98.88 30.0525 97.952 29.0285C100.608 27.3965 102.816 25.5085 105.056 22.9165C107.072 20.5805 108.288 18.7565 109.568 16.0365ZM144.192 10.8525H137.312C135.968 10.8525 134.976 10.8845 134.016 10.9805V8.32449C135.104 8.45249 136.192 8.51649 137.504 8.51649H154.304C155.712 8.51649 156.704 8.45249 157.728 8.32449V10.9805C156.768 10.8845 155.904 10.8525 154.528 10.8525H146.976V12.3565H155.936C157.952 12.3565 158.816 12.3245 159.712 12.2285C159.616 12.9965 159.584 13.6365 159.584 14.7565V16.7405C159.584 17.7965 159.616 18.3405 159.744 19.2045H156.96V14.5005H146.976V17.9245C146.976 19.5245 147.008 20.1325 147.136 20.9965H144C144.128 20.1645 144.192 19.3005 144.192 17.9245V14.5005H134.752V19.2045H131.936C132.064 18.3405 132.128 17.7645 132.128 16.7405V14.7565C132.128 13.7005 132.096 13.0285 132 12.2285C132.864 12.3245 133.76 12.3565 135.744 12.3565H144.192V10.8525ZM144.192 32.0045H137.472V33.7005H134.496C134.624 32.8045 134.688 31.8125 134.688 30.7245V24.8365C134.688 23.6205 134.624 22.7565 134.528 21.8285C135.36 21.9245 136.128 21.9565 137.472 21.9565H154.048C155.488 21.9565 156.32 21.9245 157.12 21.8285C157.024 22.6605 156.992 23.4605 156.992 24.8685V29.7965C156.992 30.8205 156.992 31.4925 157.056 32.1325C156.032 32.0365 155.36 32.0045 154.048 32.0045H146.912V33.4445C146.912 33.7965 147.04 33.9565 147.52 34.0845C147.968 34.1805 150.048 34.2765 152.032 34.2765C154.976 34.2765 156.704 34.0845 157.152 33.7005C157.536 33.3805 157.696 32.4525 157.696 30.0525C158.752 30.5965 159.136 30.7245 160.448 31.0445C160.192 36.3885 159.808 36.6125 151.2 36.6125C145.088 36.6125 144.192 36.3245 144.192 34.3085V32.0045ZM144.192 24.0685H137.44V25.8605H144.192V24.0685ZM144.192 27.8765H137.44V29.8285H144.192V27.8765ZM146.912 29.8285H154.24V27.8765H146.912V29.8285ZM146.912 25.8605H154.24V24.0685H146.912V25.8605ZM136.256 17.5405V15.6205C136.768 15.6845 137.152 15.7165 138.016 15.7165H140.928C141.664 15.7165 142.24 15.6845 142.656 15.6205V17.5405C142.112 17.4765 141.696 17.4445 140.928 17.4445H138.016C137.248 17.4445 136.736 17.4765 136.256 17.5405ZM136.256 20.6125V18.6925C136.8 18.7565 137.12 18.7885 138.016 18.7885H140.928C141.728 18.7885 142.208 18.7565 142.656 18.6925V20.6125C142.112 20.5485 141.696 20.5165 140.928 20.5165H138.016C137.216 20.5165 136.928 20.5165 136.256 20.6125ZM148.608 17.5085V15.5885C149.088 15.6525 149.504 15.6845 150.368 15.6845H153.76C154.528 15.6845 155.04 15.6525 155.488 15.5885V17.5085C154.944 17.4445 154.528 17.4125 153.76 17.4125H150.368C149.6 17.4125 149.088 17.4445 148.608 17.5085ZM148.608 20.6125V18.6925C149.088 18.7565 149.504 18.7885 150.368 18.7885H153.76C154.528 18.7885 154.976 18.7565 155.488 18.6925V20.6125C155.008 20.5485 154.56 20.5165 153.76 20.5165H150.368C149.568 20.5165 149.12 20.5485 148.608 20.6125ZM190.656 21.1565L192.16 22.6605C191.968 22.9805 191.968 22.9805 191.552 23.9085C190.976 25.1245 189.728 27.3005 188.96 28.3245C188.384 29.1565 187.84 29.7965 187.04 30.6605C189.184 32.1965 191.008 32.9965 194.56 34.0525C193.92 35.0765 193.568 35.7805 193.152 36.8685C189.376 35.5245 187.232 34.4045 184.992 32.6125C182.912 34.3085 180.512 35.6205 177.184 36.9005C176.736 35.9405 176.288 35.2365 175.552 34.4685C175.552 35.3005 175.584 35.8765 175.68 36.6125H172.992V35.4285H168.672V37.0285H165.888C166.016 36.1325 166.08 35.1085 166.08 33.9245V29.3485C166.08 28.2925 166.048 27.5885 165.92 26.7565C166.816 26.8525 167.456 26.8845 168.448 26.8845H173.408C174.72 26.8845 175.072 26.8845 175.648 26.7885C175.552 27.5245 175.552 27.9405 175.552 29.1565V34.3725C178.656 33.3805 180.928 32.2605 182.944 30.7565C180.96 28.6445 179.936 27.0125 178.592 23.8445C177.856 23.8765 177.568 23.8765 176.96 23.9725V21.1245C177.6 21.2525 178.208 21.2845 179.104 21.2845H188.32C189.6 21.2845 190.176 21.2525 190.656 21.1565ZM188.544 23.8125H181.344C182.304 26.0205 183.2 27.3005 184.992 28.9965C186.592 27.3325 187.392 26.1805 188.544 23.8125ZM168.672 29.1885V33.0925H172.992V29.1885H168.672ZM165.984 11.2365V8.54849C166.816 8.67649 167.328 8.70849 168.576 8.70849H173.056C174.304 8.70849 174.816 8.67649 175.648 8.54849V11.2365C174.88 11.1405 174.176 11.1085 173.056 11.1085H168.576C167.488 11.1085 166.72 11.1405 165.984 11.2365ZM164.928 15.8445V13.0285C165.696 13.1565 166.304 13.1885 167.488 13.1885H173.92C175.232 13.1885 175.776 13.1565 176.48 13.0605V15.8445C175.808 15.7485 175.328 15.7165 174.112 15.7165H167.488C166.4 15.7165 165.728 15.7485 164.928 15.8445ZM166.016 20.3565V17.7965C166.656 17.8605 167.136 17.8925 168.224 17.8925H173.44C174.528 17.8925 174.976 17.8605 175.584 17.7965V20.3565C174.88 20.2925 174.4 20.2605 173.44 20.2605H168.224C167.168 20.2605 166.656 20.2925 166.016 20.3565ZM166.016 24.8045V22.2445C166.688 22.3085 167.136 22.3405 168.224 22.3405H173.44C174.528 22.3405 174.976 22.3085 175.584 22.2445V24.8045C174.72 24.7085 174.496 24.7085 173.408 24.7085H168.192C167.136 24.7085 166.72 24.7405 166.016 24.8045ZM186.272 11.3645H182.176C182.08 14.4365 181.728 16.0045 180.768 17.8285C180.096 19.1085 179.456 19.8765 178.272 20.8685C177.504 20.0685 176.768 19.4605 175.968 19.0125C178.624 17.1565 179.52 15.0445 179.52 10.6925C179.52 9.82849 179.488 9.54049 179.392 8.67649C180.224 8.77249 180.992 8.80449 181.888 8.80449H186.368C187.488 8.80449 188.288 8.77249 189.088 8.67649C188.992 9.44449 188.96 10.2765 188.96 11.5245V16.3565C188.96 16.8365 189.216 16.9645 190.144 16.9645C191.072 16.9645 191.424 16.8685 191.552 16.4845C191.744 16.0045 191.84 15.0445 191.936 13.0285C192.832 13.5405 193.408 13.7965 194.368 14.0845C193.984 18.9165 193.6 19.3965 190.016 19.3965C186.848 19.3965 186.272 19.1085 186.272 17.4445V11.3645Z" fill="white"/>
<path d="M70.95 46.6405H68.29V49.5005H66.77V42.5205H68.29V45.3005H70.95V42.5205H72.47V49.5005H70.95V46.6405ZM79.7063 49.5005L79.2063 47.8405H76.8763L76.3763 49.5005H74.8363L77.1363 42.5205H79.0163L81.2863 49.5005H79.7063ZM78.0563 43.9005H78.0063L77.2363 46.5505H78.8363L78.0563 43.9005ZM85.172 49.5005H83.652V42.5205H86.962C87.282 42.5205 87.572 42.5738 87.832 42.6805C88.092 42.7872 88.312 42.9405 88.492 43.1405C88.6787 43.3338 88.822 43.5672 88.922 43.8405C89.022 44.1138 89.072 44.4172 89.072 44.7505C89.072 45.2238 88.9654 45.6372 88.752 45.9905C88.5454 46.3438 88.2287 46.6005 87.802 46.7605L89.172 49.5005H87.482L86.262 46.9405H85.172V49.5005ZM86.772 45.6605C86.9987 45.6605 87.1754 45.6038 87.302 45.4905C87.4354 45.3705 87.502 45.1972 87.502 44.9705V44.5305C87.502 44.3038 87.4354 44.1338 87.302 44.0205C87.1754 43.9005 86.9987 43.8405 86.772 43.8405H85.172V45.6605H86.772ZM96.0903 49.5005L95.5903 47.8405H93.2603L92.7603 49.5005H91.2203L93.5203 42.5205H95.4003L97.6703 49.5005H96.0903ZM94.4403 43.9005H94.3903L93.6203 46.5505H95.2203L94.4403 43.9005ZM105.256 44.9205H105.226L104.716 45.9405L103.356 48.4105L102.026 45.9505L101.496 44.8505H101.466V49.5005H100.036V42.5205H101.646L103.356 45.7905H103.376L105.066 42.5205H106.686V49.5005H105.256V44.9205ZM112.429 49.6205C111.969 49.6205 111.549 49.5438 111.169 49.3905C110.789 49.2372 110.466 49.0105 110.199 48.7105C109.933 48.4038 109.726 48.0272 109.579 47.5805C109.433 47.1272 109.359 46.6038 109.359 46.0105C109.359 45.4172 109.433 44.8972 109.579 44.4505C109.726 43.9972 109.933 43.6205 110.199 43.3205C110.466 43.0138 110.789 42.7838 111.169 42.6305C111.549 42.4772 111.969 42.4005 112.429 42.4005C112.889 42.4005 113.309 42.4772 113.689 42.6305C114.069 42.7838 114.393 43.0138 114.659 43.3205C114.926 43.6205 115.133 43.9972 115.279 44.4505C115.426 44.8972 115.499 45.4172 115.499 46.0105C115.499 46.6038 115.426 47.1272 115.279 47.5805C115.133 48.0272 114.926 48.4038 114.659 48.7105C114.393 49.0105 114.069 49.2372 113.689 49.3905C113.309 49.5438 112.889 49.6205 112.429 49.6205ZM112.429 48.2705C112.889 48.2705 113.246 48.1205 113.499 47.8205C113.759 47.5205 113.889 47.0905 113.889 46.5305V45.4905C113.889 44.9305 113.759 44.5005 113.499 44.2005C113.246 43.9005 112.889 43.7505 112.429 43.7505C111.969 43.7505 111.609 43.9005 111.349 44.2005C111.096 44.5005 110.969 44.9305 110.969 45.4905V46.5305C110.969 47.0905 111.096 47.5205 111.349 47.8205C111.609 48.1205 111.969 48.2705 112.429 48.2705ZM120.824 43.8705V49.5005H119.304V43.8705H117.414V42.5205H122.714V43.8705H120.824ZM127.7 49.6205C127.24 49.6205 126.82 49.5438 126.44 49.3905C126.06 49.2372 125.737 49.0105 125.47 48.7105C125.203 48.4038 124.997 48.0272 124.85 47.5805C124.703 47.1272 124.63 46.6038 124.63 46.0105C124.63 45.4172 124.703 44.8972 124.85 44.4505C124.997 43.9972 125.203 43.6205 125.47 43.3205C125.737 43.0138 126.06 42.7838 126.44 42.6305C126.82 42.4772 127.24 42.4005 127.7 42.4005C128.16 42.4005 128.58 42.4772 128.96 42.6305C129.34 42.7838 129.663 43.0138 129.93 43.3205C130.197 43.6205 130.403 43.9972 130.55 44.4505C130.697 44.8972 130.77 45.4172 130.77 46.0105C130.77 46.6038 130.697 47.1272 130.55 47.5805C130.403 48.0272 130.197 48.4038 129.93 48.7105C129.663 49.0105 129.34 49.2372 128.96 49.3905C128.58 49.5438 128.16 49.6205 127.7 49.6205ZM127.7 48.2705C128.16 48.2705 128.517 48.1205 128.77 47.8205C129.03 47.5205 129.16 47.0905 129.16 46.5305V45.4905C129.16 44.9305 129.03 44.5005 128.77 44.2005C128.517 43.9005 128.16 43.7505 127.7 43.7505C127.24 43.7505 126.88 43.9005 126.62 44.2005C126.367 44.5005 126.24 44.9305 126.24 45.4905V46.5305C126.24 47.0905 126.367 47.5205 126.62 47.8205C126.88 48.1205 127.24 48.2705 127.7 48.2705ZM137.202 49.5005V42.5205H141.952V43.8705H138.722V45.3005H141.492V46.6405H138.722V48.1505H141.952V49.5005H137.202ZM144.676 49.5005V42.5205H146.196V48.1505H148.856V49.5005H144.676ZM151.379 49.5005V42.5205H156.129V43.8705H152.899V45.3005H155.669V46.6405H152.899V48.1505H156.129V49.5005H151.379ZM161.673 49.6205C161.2 49.6205 160.773 49.5472 160.393 49.4005C160.013 49.2472 159.69 49.0238 159.423 48.7305C159.157 48.4305 158.95 48.0605 158.803 47.6205C158.657 47.1738 158.583 46.6538 158.583 46.0605C158.583 45.4738 158.657 44.9538 158.803 44.5005C158.95 44.0405 159.157 43.6572 159.423 43.3505C159.69 43.0372 160.013 42.8005 160.393 42.6405C160.773 42.4805 161.2 42.4005 161.673 42.4005C162.32 42.4005 162.853 42.5338 163.273 42.8005C163.693 43.0605 164.03 43.4738 164.283 44.0405L162.973 44.7205C162.88 44.4272 162.733 44.1938 162.533 44.0205C162.34 43.8405 162.053 43.7505 161.673 43.7505C161.227 43.7505 160.867 43.8972 160.593 44.1905C160.327 44.4772 160.193 44.8972 160.193 45.4505V46.5705C160.193 47.1238 160.327 47.5472 160.593 47.8405C160.867 48.1272 161.227 48.2705 161.673 48.2705C162.047 48.2705 162.343 48.1705 162.563 47.9705C162.79 47.7638 162.957 47.5172 163.063 47.2305L164.303 47.9505C164.043 48.4838 163.7 48.8972 163.273 49.1905C162.853 49.4772 162.32 49.6205 161.673 49.6205ZM169.677 43.8705V49.5005H168.157V43.8705H166.267V42.5205H171.567V43.8705H169.677ZM175.527 49.5005H174.007V42.5205H177.317C177.637 42.5205 177.927 42.5738 178.187 42.6805C178.447 42.7872 178.667 42.9405 178.847 43.1405C179.033 43.3338 179.177 43.5672 179.277 43.8405C179.377 44.1138 179.427 44.4172 179.427 44.7505C179.427 45.2238 179.32 45.6372 179.107 45.9905C178.9 46.3438 178.583 46.6005 178.157 46.7605L179.527 49.5005H177.837L176.617 46.9405H175.527V49.5005ZM177.127 45.6605C177.353 45.6605 177.53 45.6038 177.657 45.4905C177.79 45.3705 177.857 45.1972 177.857 44.9705V44.5305C177.857 44.3038 177.79 44.1338 177.657 44.0205C177.53 43.9005 177.353 43.8405 177.127 43.8405H175.527V45.6605H177.127ZM181.875 49.5005V48.2905H182.775V43.7305H181.875V42.5205H185.195V43.7305H184.295V48.2905H185.195V49.5005H181.875ZM190.681 49.6205C190.208 49.6205 189.781 49.5472 189.401 49.4005C189.021 49.2472 188.698 49.0238 188.431 48.7305C188.165 48.4305 187.958 48.0605 187.811 47.6205C187.665 47.1738 187.591 46.6538 187.591 46.0605C187.591 45.4738 187.665 44.9538 187.811 44.5005C187.958 44.0405 188.165 43.6572 188.431 43.3505C188.698 43.0372 189.021 42.8005 189.401 42.6405C189.781 42.4805 190.208 42.4005 190.681 42.4005C191.328 42.4005 191.861 42.5338 192.281 42.8005C192.701 43.0605 193.038 43.4738 193.291 44.0405L191.981 44.7205C191.888 44.4272 191.741 44.1938 191.541 44.0205C191.348 43.8405 191.061 43.7505 190.681 43.7505C190.235 43.7505 189.875 43.8972 189.601 44.1905C189.335 44.4772 189.201 44.8972 189.201 45.4505V46.5705C189.201 47.1238 189.335 47.5472 189.601 47.8405C189.875 48.1272 190.235 48.2705 190.681 48.2705C191.055 48.2705 191.351 48.1705 191.571 47.9705C191.798 47.7638 191.965 47.5172 192.071 47.2305L193.311 47.9505C193.051 48.4838 192.708 48.8972 192.281 49.1905C191.861 49.4772 191.328 49.6205 190.681 49.6205Z" fill="white"/>
</svg>
